<svg width="512" height="512" viewBox="0 0 512 512" fill="none" xmlns="http://www.w3.org/2000/svg">
<rect width="512" height="512" fill="#393846"/>
<path d="M143.75 212L132.8 263C132.4 264.6 132.2 266.25 132.2 267.95C132.2 270.85 132.85 273 134.15 274.4C135.45 275.8 137.05 276.5 138.95 276.5C141.85 276.5 144.8 275.1 147.8 272.3C150.9 269.4 153 265.35 154.1 260.15L164.3 212H179.3L164 284C166.7 283.1 169.15 282.1 171.35 281C173.65 279.8 175.7 278.3 177.5 276.5C179.3 274.6 180.95 272.35 182.45 269.75C183.95 267.15 185.35 263.95 186.65 260.15H192.2C190.4 265.45 188.5 269.8 186.5 273.2C184.6 276.5 182.45 279.25 180.05 281.45C177.65 283.55 175 285.2 172.1 286.4C169.3 287.6 166.2 288.6 162.8 289.4L160.85 299C159.75 304.4 158.5 308.75 157.1 312.05C155.8 315.35 154.3 317.9 152.6 319.7C151 321.6 149.2 322.85 147.2 323.45C145.2 324.15 142.95 324.5 140.45 324.5C135.85 324.5 131.95 323.45 128.75 321.35C125.55 319.35 123.95 315.9 123.95 311C123.95 308.5 124.65 306.15 126.05 303.95C127.55 301.85 129.45 299.85 131.75 297.95C134.05 296.05 136.6 294.35 139.4 292.85C142.3 291.35 145.15 290.05 147.95 288.95L149.9 279.5C147.4 282.4 144.75 284.55 141.95 285.95C139.25 287.25 136.6 287.9 134 287.9C131.7 287.9 129.55 287.45 127.55 286.55C125.55 285.55 123.8 284.2 122.3 282.5C120.8 280.8 119.6 278.7 118.7 276.2C117.9 273.7 117.5 270.9 117.5 267.8C117.5 265.4 117.8 262.85 118.4 260.15L128.6 212H143.75ZM135.35 316.7C138.15 316.7 140.3 315.1 141.8 311.9C143.3 308.7 144.6 304.5 145.7 299.3L146.75 294.5C141.15 296.9 136.9 299.55 134 302.45C131.2 305.35 129.8 308.15 129.8 310.85C129.8 312.55 130.25 313.95 131.15 315.05C132.15 316.15 133.55 316.7 135.35 316.7ZM247.565 212L236.615 263C236.115 265 235.865 267.25 235.865 269.75C235.865 271.45 236.165 273 236.765 274.4C237.365 275.8 238.615 276.5 240.515 276.5C242.915 276.5 245.315 275.05 247.715 272.15C250.215 269.25 252.565 265.25 254.765 260.15H260.315C257.915 266.45 255.515 271.45 253.115 275.15C250.715 278.75 248.365 281.5 246.065 283.4C243.865 285.3 241.715 286.5 239.615 287C237.615 287.6 235.815 287.9 234.215 287.9C231.015 287.9 228.315 286.8 226.115 284.6C223.915 282.3 222.615 278.6 222.215 273.5C219.315 278.6 216.065 282.3 212.465 284.6C208.965 286.8 205.515 287.9 202.115 287.9C199.815 287.9 197.665 287.45 195.665 286.55C193.665 285.55 191.915 284.2 190.415 282.5C188.915 280.8 187.715 278.7 186.815 276.2C186.015 273.7 185.615 270.9 185.615 267.8C185.615 265.4 185.915 262.85 186.515 260.15L196.715 212H211.865L200.915 263C200.515 264.6 200.315 266.25 200.315 267.95C200.315 270.85 200.965 273 202.265 274.4C203.565 275.8 205.165 276.5 207.065 276.5C209.965 276.5 212.915 275.1 215.915 272.3C219.015 269.4 221.115 265.35 222.215 260.15L232.415 212H247.565ZM279.98 212L277.58 223.25C279.48 220.65 281.38 218.55 283.28 216.95C285.18 215.35 286.98 214.15 288.68 213.35C290.48 212.45 292.13 211.9 293.63 211.7C295.23 211.4 296.68 211.25 297.98 211.25C300.98 211.25 303.48 211.7 305.48 212.6C307.48 213.5 309.08 214.75 310.28 216.35C311.48 217.85 312.28 219.65 312.68 221.75C313.18 223.75 313.43 225.9 313.43 228.2C313.43 231.5 313.03 234.95 312.23 238.55C311.53 242.15 310.73 245.7 309.83 249.2C308.93 252.7 308.08 256.15 307.28 259.55C306.58 262.95 306.23 266.15 306.23 269.15C306.23 271.25 306.53 273 307.13 274.4C307.73 275.8 308.93 276.5 310.73 276.5C315.43 276.5 320.13 271.05 324.83 260.15H330.38C327.98 266.45 325.58 271.45 323.18 275.15C320.78 278.85 318.43 281.65 316.13 283.55C313.93 285.35 311.83 286.5 309.83 287C307.93 287.6 306.23 287.9 304.73 287.9C299.53 287.9 295.83 286.3 293.63 283.1C291.43 279.8 290.33 275.75 290.33 270.95C290.33 267.65 290.68 264.2 291.38 260.6C292.18 257 293.03 253.45 293.93 249.95C294.83 246.45 295.63 243.1 296.33 239.9C297.13 236.6 297.53 233.6 297.53 230.9C297.53 228.4 297.08 226.4 296.18 224.9C295.28 223.4 293.53 222.65 290.93 222.65C284.73 222.65 279.18 228 274.28 238.7L263.93 287H248.93L264.83 212H279.98ZM390.35 212L379.4 263C379.2 264.1 379.05 265.2 378.95 266.3C378.85 267.4 378.8 268.45 378.8 269.45C378.8 271.55 379.15 273.25 379.85 274.55C380.65 275.85 382.05 276.5 384.05 276.5C384.75 276.5 385.45 276.45 386.15 276.35C386.95 276.25 387.85 276 388.85 275.6C387.65 280.4 386.05 283.65 384.05 285.35C382.05 287.05 379.7 287.9 377 287.9C373.7 287.9 370.95 286.75 368.75 284.45C366.65 282.15 365.4 278.4 365 273.2C362.7 277.3 359.5 280.8 355.4 283.7C351.4 286.5 347 287.9 342.2 287.9C339.8 287.9 337.45 287.5 335.15 286.7C332.85 285.8 330.8 284.4 329 282.5C327.2 280.5 325.75 278 324.65 275C323.55 271.9 323 268.15 323 263.75C323 260.35 323.35 256.7 324.05 252.8C324.85 248.9 325.95 245 327.35 241.1C328.75 237.2 330.55 233.45 332.75 229.85C334.95 226.25 337.45 223.1 340.25 220.4C343.05 217.6 346.2 215.4 349.7 213.8C353.3 212.1 357.2 211.25 361.4 211.25C363.8 211.25 366.25 211.8 368.75 212.9C371.25 214 372.9 216.1 373.7 219.2L375.2 212H390.35ZM348.5 276.5C350.1 276.5 351.75 276.1 353.45 275.3C355.15 274.4 356.75 273.25 358.25 271.85C359.85 270.35 361.25 268.6 362.45 266.6C363.65 264.6 364.5 262.45 365 260.15L372.2 226.1C371.9 224.4 371.15 222.9 369.95 221.6C368.75 220.2 367 219.5 364.7 219.5C360.6 219.5 356.95 221 353.75 224C350.55 227 347.85 230.65 345.65 234.95C343.45 239.25 341.8 243.85 340.7 248.75C339.6 253.65 339.05 257.95 339.05 261.65C339.05 267.35 339.9 271.25 341.6 273.35C343.3 275.45 345.6 276.5 348.5 276.5Z" fill="white"/>
</svg>
